<svg width="28" height="28" viewBox="0 0 28 28" fill="none" xmlns="http://www.w3.org/2000/svg">
<rect width="28" height="28" rx="4" fill="black" fill-opacity="0.05"/>
<path d="M5.875 8.375V7.125H7.125V8.375H5.875ZM4.625 6.8125V8.6875C4.625 9.20703 5.04297 9.625 5.5625 9.625H7.4375C7.95703 9.625 8.375 9.20703 8.375 8.6875V6.8125C8.375 6.29297 7.95703 5.875 7.4375 5.875H5.5625C5.04297 5.875 4.625 6.29297 4.625 6.8125ZM10.875 7.125C10.5312 7.125 10.25 7.40625 10.25 7.75C10.25 8.09375 10.5312 8.375 10.875 8.375H23.375C23.7188 8.375 24 8.09375 24 7.75C24 7.40625 23.7188 7.125 23.375 7.125H10.875ZM10.875 13.375C10.5312 13.375 10.25 13.6562 10.25 14C10.25 14.3438 10.5312 14.625 10.875 14.625H23.375C23.7188 14.625 24 14.3438 24 14C24 13.6562 23.7188 13.375 23.375 13.375H10.875ZM10.875 19.625C10.5312 19.625 10.25 19.9062 10.25 20.25C10.25 20.5938 10.5312 20.875 10.875 20.875H23.375C23.7188 20.875 24 20.5938 24 20.25C24 19.9062 23.7188 19.625 23.375 19.625H10.875ZM5.875 13.375H7.125V14.625H5.875V13.375ZM5.5625 12.125C5.04297 12.125 4.625 12.543 4.625 13.0625V14.9375C4.625 15.457 5.04297 15.875 5.5625 15.875H7.4375C7.95703 15.875 8.375 15.457 8.375 14.9375V13.0625C8.375 12.543 7.95703 12.125 7.4375 12.125H5.5625ZM5.875 20.875V19.625H7.125V20.875H5.875ZM4.625 19.3125V21.1875C4.625 21.707 5.04297 22.125 5.5625 22.125H7.4375C7.95703 22.125 8.375 21.707 8.375 21.1875V19.3125C8.375 18.793 7.95703 18.375 7.4375 18.375H5.5625C5.04297 18.375 4.625 18.793 4.625 19.3125Z" fill="#2E424D"/>
</svg>
